<svg width="33" height="32" viewBox="0 0 33 32" fill="none" xmlns="http://www.w3.org/2000/svg">
<path d="M26.7114 12.935L17.378 4.76837C16.8753 4.32851 16.1247 4.32851 15.622 4.76837L6.2887 12.935C5.99935 13.1882 5.83337 13.554 5.83337 13.9385V25.3335C5.83337 26.0698 6.43033 26.6668 7.16671 26.6668H12.5C13.2364 26.6668 13.8334 26.0698 13.8334 25.3335V20.0001C13.8334 19.2637 14.4303 18.6668 15.1667 18.6668H17.8334C18.5698 18.6668 19.1667 19.2637 19.1667 20.0001V25.3335C19.1667 26.0698 19.7637 26.6668 20.5 26.6668H25.8334C26.5698 26.6668 27.1667 26.0698 27.1667 25.3335V13.9385C27.1667 13.554 27.0007 13.1882 26.7114 12.935Z" fill="black" stroke="black" stroke-linecap="round" stroke-linejoin="round"/>
</svg>
