<svg width="24" height="24" viewBox="0 0 24 24" fill="none" xmlns="http://www.w3.org/2000/svg">
<g clip-path="url(#clip0_49_2264)">
<path d="M21.9999 -0.000232061H19.8279C19.4338 -0.00135454 19.0434 0.0757631 18.6793 0.22665C18.3152 0.377538 17.9847 0.599193 17.7069 0.878768L9.34591 9.23877C7.74517 8.82576 6.05305 8.95049 4.53018 9.59375C3.0073 10.237 1.73816 11.3631 0.918244 12.7986C0.0983249 14.2341 -0.226888 15.8994 -0.00730082 17.5379C0.212286 19.1764 0.964491 20.6973 2.13345 21.8662C3.30241 23.0352 4.82327 23.7874 6.46178 24.007C8.10029 24.2266 9.76555 23.9014 11.2011 23.0814C12.6366 22.2615 13.7627 20.9924 14.4059 19.4695C15.0492 17.9466 15.1739 16.2545 14.7609 14.6538L15.9999 13.4148V10.9998H18.9999V7.99977H21.4139L23.1209 6.29277C23.4004 6.0147 23.622 5.68399 23.7728 5.31976C23.9237 4.95553 24.0009 4.56501 23.9999 4.17077V1.99977C23.9999 1.46934 23.7892 0.960627 23.4141 0.585554C23.039 0.210482 22.5303 -0.000232061 21.9999 -0.000232061ZM21.9999 4.17077C22 4.30225 21.9742 4.43246 21.9239 4.55394C21.8736 4.67543 21.7999 4.78581 21.7069 4.87877L20.5859 5.99977H16.9999V8.99977H13.9999V12.5848L12.4549 14.1298C12.8068 14.8707 12.9927 15.6795 12.9999 16.4998C12.9999 17.5876 12.6773 18.6509 12.073 19.5554C11.4686 20.4599 10.6097 21.1648 9.60467 21.5811C8.59967 21.9974 7.49381 22.1063 6.42691 21.8941C5.36002 21.6819 4.38001 21.158 3.61082 20.3889C2.84163 19.6197 2.31781 18.6397 2.10559 17.5728C1.89337 16.5059 2.00229 15.4 2.41857 14.395C2.83485 13.39 3.5398 12.531 4.44427 11.9267C5.34874 11.3223 6.41211 10.9998 7.49991 10.9998C8.32576 10.9458 9.14934 11.1349 9.86891 11.5438L19.1209 2.29277C19.309 2.10605 19.5629 2.0008 19.8279 1.99977H21.9999V4.17077ZM4.99991 17.9998C4.99991 18.1975 5.05856 18.3909 5.16844 18.5553C5.27832 18.7198 5.4345 18.848 5.61722 18.9236C5.79995 18.9993 6.00102 19.0191 6.195 18.9806C6.38898 18.942 6.56716 18.8467 6.70701 18.7069C6.84687 18.567 6.94211 18.3888 6.98069 18.1949C7.01928 18.0009 6.99948 17.7998 6.92379 17.6171C6.8481 17.4344 6.71993 17.2782 6.55548 17.1683C6.39103 17.0584 6.19769 16.9998 5.99991 16.9998C5.73469 16.9998 5.48034 17.1051 5.2928 17.2927C5.10526 17.4802 4.99991 17.7346 4.99991 17.9998Z" fill="#686868"/>
</g>
<defs>
<clipPath id="clip0_49_2264">
<rect width="24" height="24" fill="white"/>
</clipPath>
</defs>
</svg>
