<svg width="32" height="32" viewBox="0 0 32 32" fill="none" xmlns="http://www.w3.org/2000/svg">
<path d="M16 21.3334C18.9455 21.3334 21.3333 18.9456 21.3333 16.0001C21.3333 13.0546 18.9455 10.6667 16 10.6667C13.0544 10.6667 10.6666 13.0546 10.6666 16.0001C10.6666 18.9456 13.0544 21.3334 16 21.3334Z" stroke="#14181F" stroke-width="2" stroke-linecap="round" stroke-linejoin="round"/>
<path d="M25.5561 10.5867L25.4684 10.4349C25.2265 10.0162 25.1031 9.53966 25.1112 9.05621L25.1511 6.68445C25.1593 6.19974 24.9037 5.7488 24.4837 5.50677L20.8348 3.40409C20.4158 3.16266 19.899 3.16699 19.4841 3.4154L17.4587 4.62818C17.0447 4.87605 16.5713 5.00696 16.0888 5.00696H15.9132C15.4296 5.00696 14.9552 4.87548 14.5406 4.62659L12.5058 3.40503C12.0895 3.15509 11.5702 3.15125 11.1503 3.395L7.51294 5.50605C7.09495 5.74865 6.84096 6.19844 6.84909 6.68166L6.88904 9.05621C6.89717 9.53966 6.77371 10.0162 6.53185 10.4349L6.44534 10.5847C6.20335 11.0036 5.85196 11.3488 5.42881 11.5833L3.35563 12.7322C2.9307 12.9677 2.66748 13.4156 2.66858 13.9015L2.67813 18.1039C2.67922 18.5867 2.9413 19.0313 3.36327 19.266L5.42649 20.4138C5.85109 20.65 6.20309 20.9977 6.44446 21.4194L6.53716 21.5814C6.77561 21.998 6.89719 22.4712 6.88909 22.9511L6.84918 25.3153C6.841 25.8 7.09656 26.251 7.51661 26.4931L11.1655 28.5957C11.5844 28.8371 12.1013 28.8328 12.5161 28.5844L14.5416 27.3716C14.9555 27.1237 15.429 26.9928 15.9115 26.9928H16.0871C16.5706 26.9928 17.0451 27.1243 17.4597 27.3732L19.4944 28.5948C19.9107 28.8447 20.43 28.8485 20.85 28.6048L24.4873 26.4937C24.9053 26.2511 25.1593 25.8013 25.1512 25.3181L25.1112 22.9436C25.1031 22.4601 25.2265 21.9836 25.4684 21.5649L25.5549 21.4151C25.7969 20.9962 26.1483 20.651 26.5714 20.4165L28.6446 19.2676C29.0696 19.0321 29.3328 18.5842 29.3317 18.0983L29.3221 13.8959C29.321 13.413 29.059 12.9685 28.637 12.7338L26.5688 11.5832C26.1473 11.3487 25.7973 11.0044 25.5561 10.5867Z" stroke="#14181F" stroke-width="2" stroke-linecap="round" stroke-linejoin="round"/>
</svg>
